<svg id="Layer_1" data-name="Layer 1" xmlns="http://www.w3.org/2000/svg" viewBox="0 0 621.75 687.65"><defs><style>.cls-1{fill:#fff;}.cls-2{fill:#d2ff00;}.cls-3{fill:#1e1e1c;stroke:#e10a17;stroke-miterlimit:10;stroke-width:1.68px;}</style></defs><title>Lando Norris LN4hh</title><path class="cls-1" d="M432.8,586c-15.22,0-28.51-9.38-24-27.18l93.42-387.71a2.84,2.84,0,0,0-.75-2.67L420.18,87.2a2.84,2.84,0,0,0-4.76,1.34l-123.79,513c-10.87,45.4,19.48,88.66,69.79,88.66l154.53,0h72.8a2.83,2.83,0,0,0,2.76-2.17l23.73-98.34a2.84,2.84,0,0,0-2.75-3.5Z" transform="translate(-289.43 -86.37)"/><path class="cls-2" d="M767.81,273.69c15.21,0,28.51,9.39,24,27.19L698.38,688.59a2.84,2.84,0,0,0,.75,2.67l82,81.93a2.83,2.83,0,0,0,4.76-1.34L909,258.22c10.86-45.41-19.48-88.67-69.79-88.67l-154.53,0h-72.8a2.84,2.84,0,0,0-2.76,2.17L584.52,273.61l-49.32,205a2.83,2.83,0,0,0,2.76,3.5h100.9a2.84,2.84,0,0,0,2.76-2.17l49.16-204.1a2.83,2.83,0,0,1,2.75-2.17Z" transform="translate(-289.43 -86.37)"/><path class="cls-3" d="M562.22,227.06" transform="translate(-289.43 -86.37)"/></svg>